<mxfile host="app.diagrams.net" modified="2023-04-05T13:40:45.250Z" agent="5.0 (Windows NT 10.0; Win64; x64) AppleWebKit/537.36 (KHTML, like Gecko) Chrome/110.0.0.0 Safari/537.36 OPR/96.0.0.0" etag="9CPH8RQ4tXKo4xTXN07s" version="20.8.23" type="github">
  <diagram name="Strona-1" id="_xmPJYjkQ2WJkf1YPbaS">
    <mxGraphModel dx="814" dy="462" grid="1" gridSize="10" guides="1" tooltips="1" connect="1" arrows="1" fold="1" page="1" pageScale="1" pageWidth="827" pageHeight="1169" math="0" shadow="0">
      <root>
        <mxCell id="0" />
        <mxCell id="1" parent="0" />
        <mxCell id="blq9MUtso62nvFPrP9PC-3" style="edgeStyle=orthogonalEdgeStyle;rounded=0;orthogonalLoop=1;jettySize=auto;html=1;entryX=0.5;entryY=0;entryDx=0;entryDy=0;" edge="1" parent="1" source="blq9MUtso62nvFPrP9PC-1" target="blq9MUtso62nvFPrP9PC-2">
          <mxGeometry relative="1" as="geometry" />
        </mxCell>
        <mxCell id="blq9MUtso62nvFPrP9PC-1" value="START" style="ellipse;whiteSpace=wrap;html=1;" vertex="1" parent="1">
          <mxGeometry x="340" y="90" width="120" height="80" as="geometry" />
        </mxCell>
        <mxCell id="blq9MUtso62nvFPrP9PC-7" style="edgeStyle=orthogonalEdgeStyle;rounded=0;orthogonalLoop=1;jettySize=auto;html=1;entryX=0.5;entryY=0;entryDx=0;entryDy=0;" edge="1" parent="1" source="blq9MUtso62nvFPrP9PC-2" target="blq9MUtso62nvFPrP9PC-4">
          <mxGeometry relative="1" as="geometry" />
        </mxCell>
        <mxCell id="blq9MUtso62nvFPrP9PC-2" value="Pobierz a i b" style="rounded=0;whiteSpace=wrap;html=1;" vertex="1" parent="1">
          <mxGeometry x="340" y="220" width="120" height="60" as="geometry" />
        </mxCell>
        <mxCell id="blq9MUtso62nvFPrP9PC-9" style="edgeStyle=orthogonalEdgeStyle;rounded=0;orthogonalLoop=1;jettySize=auto;html=1;entryX=0.5;entryY=0;entryDx=0;entryDy=0;" edge="1" parent="1" source="blq9MUtso62nvFPrP9PC-4" target="blq9MUtso62nvFPrP9PC-8">
          <mxGeometry relative="1" as="geometry" />
        </mxCell>
        <mxCell id="blq9MUtso62nvFPrP9PC-14" value="TAK" style="edgeLabel;html=1;align=center;verticalAlign=middle;resizable=0;points=[];" vertex="1" connectable="0" parent="blq9MUtso62nvFPrP9PC-9">
          <mxGeometry x="-0.1846" relative="1" as="geometry">
            <mxPoint as="offset" />
          </mxGeometry>
        </mxCell>
        <mxCell id="blq9MUtso62nvFPrP9PC-11" style="edgeStyle=orthogonalEdgeStyle;rounded=0;orthogonalLoop=1;jettySize=auto;html=1;entryX=0.5;entryY=0;entryDx=0;entryDy=0;" edge="1" parent="1" source="blq9MUtso62nvFPrP9PC-4" target="blq9MUtso62nvFPrP9PC-10">
          <mxGeometry relative="1" as="geometry" />
        </mxCell>
        <mxCell id="blq9MUtso62nvFPrP9PC-15" value="NIe" style="edgeLabel;html=1;align=center;verticalAlign=middle;resizable=0;points=[];" vertex="1" connectable="0" parent="blq9MUtso62nvFPrP9PC-11">
          <mxGeometry x="-0.2714" y="3" relative="1" as="geometry">
            <mxPoint as="offset" />
          </mxGeometry>
        </mxCell>
        <mxCell id="blq9MUtso62nvFPrP9PC-4" value="b==0" style="rhombus;whiteSpace=wrap;html=1;" vertex="1" parent="1">
          <mxGeometry x="360" y="320" width="80" height="80" as="geometry" />
        </mxCell>
        <mxCell id="blq9MUtso62nvFPrP9PC-16" style="edgeStyle=orthogonalEdgeStyle;rounded=0;orthogonalLoop=1;jettySize=auto;html=1;entryX=0;entryY=0.5;entryDx=0;entryDy=0;exitX=0.5;exitY=1;exitDx=0;exitDy=0;" edge="1" parent="1" source="blq9MUtso62nvFPrP9PC-8" target="blq9MUtso62nvFPrP9PC-12">
          <mxGeometry relative="1" as="geometry" />
        </mxCell>
        <mxCell id="blq9MUtso62nvFPrP9PC-8" value="Dzielenie przez 0" style="rounded=0;whiteSpace=wrap;html=1;" vertex="1" parent="1">
          <mxGeometry x="230" y="420" width="120" height="60" as="geometry" />
        </mxCell>
        <mxCell id="blq9MUtso62nvFPrP9PC-13" style="edgeStyle=orthogonalEdgeStyle;rounded=0;orthogonalLoop=1;jettySize=auto;html=1;entryX=1;entryY=0.5;entryDx=0;entryDy=0;" edge="1" parent="1" source="blq9MUtso62nvFPrP9PC-10" target="blq9MUtso62nvFPrP9PC-12">
          <mxGeometry relative="1" as="geometry" />
        </mxCell>
        <mxCell id="blq9MUtso62nvFPrP9PC-10" value="a/b" style="rounded=0;whiteSpace=wrap;html=1;" vertex="1" parent="1">
          <mxGeometry x="450" y="420" width="120" height="60" as="geometry" />
        </mxCell>
        <mxCell id="blq9MUtso62nvFPrP9PC-12" value="STOP" style="ellipse;whiteSpace=wrap;html=1;" vertex="1" parent="1">
          <mxGeometry x="340" y="490" width="120" height="80" as="geometry" />
        </mxCell>
      </root>
    </mxGraphModel>
  </diagram>
</mxfile>
